<svg width="84.00000000000001" height="84.00000000000001" xmlns="http://www.w3.org/2000/svg">
    <defs>
        <style>.cls-1{fill:#ed6b6e;}</style>
    </defs>
    <title>Middel 1</title>
    <g>
        <title>background</title>
        <rect fill="none" id="canvas_background" height="86" width="86" y="-1" x="-1"/>
    </g>
    <g>
        <title>Layer 1</title>
        <g stroke="null" id="Laag_2">
            <g stroke="null" id="Laag_1-2">
                <path stroke="null" id="svg_1"
                      d="m42.000002,57.656761a1.5,1.5 0 0 1 -1.06,-0.44l-14.48,-14.48a1.5,1.5 0 0 1 0,-2.12l14.48,-14.48a1.5,1.5 0 0 1 2.12,0l14.48,14.48a1.5,1.5 0 0 1 0,2.12l-14.48,14.48a1.5,1.5 0 0 1 -1.06,0.44zm-12.36,-16l12.36,12.38l12.37,-12.36l-12.37,-12.34l-12.36,12.32z"
                      class="cls-1"/>
                <path stroke="null" id="svg_2"
                      d="m21.620002,78.046761a1.49,1.49 0 0 1 -0.76,-0.21a41.63,41.63 0 1 1 42.28,0a1.5,1.5 0 0 1 -1.53,-2.58a38.63,38.63 0 1 0 -39.23,0a1.5,1.5 0 0 1 -0.76,2.79z"
                      class="cls-1"/>
                <path stroke="null" id="svg_3"
                      d="m42.000002,28.696761a1.5,1.5 0 0 1 -1.5,-1.5l0,-25.36a1.5,1.5 0 1 1 3,0l0,25.36a1.5,1.5 0 0 1 -1.5,1.5z"
                      class="cls-1"/>
                <path stroke="null" id="svg_4"
                      d="m61.110002,62.656761a1.5,1.5 0 0 1 -1.05,-2.57a25.8,25.8 0 0 0 -8.61,-42.41a1.5,1.5 0 0 1 1.1,-2.79a28.8,28.8 0 0 1 9.61,47.34a1.5,1.5 0 0 1 -1.05,0.43z"
                      class="cls-1"/>
                <path stroke="null" id="svg_5"
                      d="m22.860002,62.636761a1.49,1.49 0 0 1 -1.05,-0.43a28.8,28.8 0 0 1 9.66,-47.34a1.5,1.5 0 1 1 1.1,2.79a25.8,25.8 0 0 0 -8.66,42.41a1.5,1.5 0 0 1 -1.05,2.57z"
                      class="cls-1"/>
                <path stroke="null" id="svg_6"
                      d="m21.620002,78.046761a1.5,1.5 0 0 1 -1.06,-2.56l20.38,-20.39a1.5,1.5 0 0 1 2.12,2.12l-20.38,20.39a1.49,1.49 0 0 1 -1.06,0.44z"
                      class="cls-1"/>
                <path stroke="null" id="svg_7"
                      d="m62.370002,78.036761a1.5,1.5 0 0 1 -1.06,-0.44l-20.37,-20.38a1.5,1.5 0 1 1 2.12,-2.12l20.38,20.38a1.5,1.5 0 0 1 -1.07,2.56z"
                      class="cls-1"/>
            </g>
        </g>
    </g>
</svg>