<?xml version="1.0" encoding="UTF-8"?>
<svg viewBox="0 0 84 84" xmlns="http://www.w3.org/2000/svg">
  <g>
    <rect x="-1" y="-1" width="86" height="86" fill="none"/>
  </g>
  <g>
    <path d="m42 57.657a1.5 1.5 0 0 1 -1.06 -0.44l-14.48-14.48a1.5 1.5 0 0 1 0 -2.12l14.48-14.48a1.5 1.5 0 0 1 2.12 0l14.48 14.48a1.5 1.5 0 0 1 0 2.12l-14.48 14.48a1.5 1.5 0 0 1 -1.06 0.44zm-12.36-16l12.36 12.38 12.37-12.36-12.37-12.34-12.36 12.32z"/>
    <path d="m21.62 78.047a1.49 1.49 0 0 1 -0.76 -0.21 41.63 41.63 0 1 1 42.28 0 1.5 1.5 0 0 1 -1.53 -2.58 38.63 38.63 0 1 0 -39.23 0 1.5 1.5 0 0 1 -0.76 2.79z"/>
    <path d="m42 28.697a1.5 1.5 0 0 1 -1.5 -1.5v-25.36a1.5 1.5 0 1 1 3 0v25.36a1.5 1.5 0 0 1 -1.5 1.5z"/>
    <path d="m61.11 62.657a1.5 1.5 0 0 1 -1.05 -2.57 25.8 25.8 0 0 0 -8.61 -42.41 1.5 1.5 0 0 1 1.1 -2.79 28.8 28.8 0 0 1 9.61 47.34 1.5 1.5 0 0 1 -1.05 0.43z"/>
    <path d="m22.86 62.637a1.49 1.49 0 0 1 -1.05 -0.43 28.8 28.8 0 0 1 9.66 -47.34 1.5 1.5 0 1 1 1.1 2.79 25.8 25.8 0 0 0 -8.66 42.41 1.5 1.5 0 0 1 -1.05 2.57z"/>
    <path d="m21.62 78.047a1.5 1.5 0 0 1 -1.06 -2.56l20.38-20.39a1.5 1.5 0 0 1 2.12 2.12l-20.38 20.39a1.49 1.49 0 0 1 -1.06 0.44z"/>
    <path d="m62.37 78.037a1.5 1.5 0 0 1 -1.06 -0.44l-20.37-20.38a1.5 1.5 0 1 1 2.12 -2.12l20.38 20.38a1.5 1.5 0 0 1 -1.07 2.56z"/>
  </g>
</svg>
